<svg width="49" height="48" fill="none" xmlns="http://www.w3.org/2000/svg"><rect x=".5" width="48" height="48" rx="12" fill="#2787F5"/><path fill-rule="evenodd" clip-rule="evenodd" d="M38.335 17.016c.201-.63 0-1.094-.96-1.094h-3.172c-.807 0-1.18.4-1.38.842 0 0-1.614 3.689-3.9 6.085-.74.694-1.075.914-1.479.914-.201 0-.493-.22-.493-.851v-5.896c0-.757-.234-1.094-.907-1.094H21.06c-.504 0-.808.351-.808.684 0 .717 1.143.883 1.261 2.9v4.383c0 .961-.185 1.135-.588 1.135-1.076 0-3.692-3.705-5.244-7.945-.304-.824-.609-1.157-1.42-1.157h-3.172c-.907 0-1.088.4-1.088.842 0 .788 1.076 4.698 5.008 9.868 2.622 3.532 6.316 5.446 9.677 5.446 2.016 0 2.266-.425 2.266-1.158v-2.669c0-.85.19-1.02.83-1.02.47 0 1.277.221 3.159 1.924 2.151 2.018 2.506 2.923 3.716 2.923h3.172c.907 0 1.36-.425 1.099-1.264-.286-.837-1.314-2.05-2.676-3.488-.74-.82-1.849-1.703-2.185-2.144-.47-.567-.336-.82 0-1.324 0 0 3.865-5.108 4.269-6.842z" fill="#fff"/></svg>